<?xml version="1.0" encoding="UTF-8" standalone="no"?>
<!-- Created with Inkscape (http://www.inkscape.org/) -->

<svg
   xmlns:dc="http://purl.org/dc/elements/1.1/"
   xmlns:cc="http://creativecommons.org/ns#"
   xmlns:rdf="http://www.w3.org/1999/02/22-rdf-syntax-ns#"
   xmlns:svg="http://www.w3.org/2000/svg"
   xmlns="http://www.w3.org/2000/svg"
   xmlns:sodipodi="http://sodipodi.sourceforge.net/DTD/sodipodi-0.dtd"
   xmlns:inkscape="http://www.inkscape.org/namespaces/inkscape"
   id="svg3336"
   version="1.1"
   inkscape:version="0.91 r13725"
   xml:space="preserve"
   width="640"
   height="640"
   viewBox="0 0 640 640"
   sodipodi:docname="FavIcon2.svg"><metadata
     id="metadata3342"><rdf:RDF><cc:Work
         rdf:about=""><dc:format>image/svg+xml</dc:format><dc:type
           rdf:resource="http://purl.org/dc/dcmitype/StillImage" /><dc:title></dc:title></cc:Work></rdf:RDF></metadata><defs
     id="defs3340"><clipPath
       clipPathUnits="userSpaceOnUse"
       id="clipPath3350"><path
         d="M 0,512 512,512 512,0 0,0 0,512 Z"
         id="path3352"
         inkscape:connector-curvature="0" /></clipPath></defs><sodipodi:namedview
     pagecolor="#ffffff"
     bordercolor="#666666"
     borderopacity="1"
     objecttolerance="10"
     gridtolerance="10"
     guidetolerance="10"
     inkscape:pageopacity="0"
     inkscape:pageshadow="2"
     inkscape:window-width="640"
     inkscape:window-height="480"
     id="namedview3338"
     showgrid="false"
     inkscape:zoom="0.8390625"
     inkscape:cx="320"
     inkscape:cy="320"
     inkscape:window-x="0"
     inkscape:window-y="0"
     inkscape:window-maximized="1"
     inkscape:current-layer="g3344" /><g
     id="g3344"
     inkscape:groupmode="layer"
     inkscape:label="FavIcon"
     transform="matrix(1.25,0,0,-1.25,0,640)"><g
       id="g3346"><g
         id="g3348"
         clip-path="url(#clipPath3350)"><g
           id="g3354"
           transform="translate(0.0642,428.3573)"><path
             d="m 0,0 0,-173.073 0.001,0 0,-171.642 c 0,0 -5.62,-63.755 87.098,-74.886 l 0,-0.004 c 0.036,-0.005 0.073,-0.007 0.11,-0.012 0.531,-0.063 1.088,-0.112 1.625,-0.173 165.262,-18.379 322.869,-1.468 322.869,-1.468 l 0,0.52 c 106.251,6.476 100.169,76.023 100.169,76.023 l 0,173.074 -0.002,0 0,171.641 c 0,0 5.62,63.755 -87.097,74.887 l 0,0.004 c -0.037,0.004 -0.074,0.007 -0.11,0.011 -0.532,0.064 -1.088,0.113 -1.626,0.173 -165.262,18.38 -322.868,1.468 -322.868,1.468 l 0,-0.52 C -6.083,69.547 0,0 0,0"
             style="fill:#2ab1d9;fill-opacity:1;fill-rule:nonzero;stroke:none"
             id="path3356"
             inkscape:connector-curvature="0" /></g><g
           id="g3358"
           transform="translate(138.4085,354.7)"><path
             d="m 0,0 -16.355,-43.337 34.345,0 L 0,0 Z m 65.252,-84.878 -29.927,0 -9.159,22.08 -49.881,0 -8.341,-22.08 -29.436,0 44.974,111.536 32.218,0 49.552,-111.536 z"
             style="fill:#ffffff;fill-opacity:1;fill-rule:nonzero;stroke:none"
             id="path3360"
             inkscape:connector-curvature="0" /></g><g
           id="g3362"
           transform="translate(236.214,335.5656)"><path
             d="m 0,0 14.718,0 c 7.686,0 15.209,3.272 15.209,12.757 0,8.341 -5.398,12.593 -15.864,12.593 L 0,25.35 0,0 Z m 22.077,45.792 c 22.897,0 36.469,-15.371 36.469,-32.053 0,-12.266 -6.377,-21.424 -19.134,-27.313 11.449,-5.722 14.883,-19.46 30.583,-52.169 l -30.583,0 c -11.937,23.876 -16.353,45.301 -31.4,45.301 l -8.012,0 0,-45.301 -27.804,0 0,111.535 49.881,0 z"
             style="fill:#ffffff;fill-opacity:1;fill-rule:nonzero;stroke:none"
             id="path3364"
             inkscape:connector-curvature="0" /></g><g
           id="g3366"
           transform="translate(410.8805,381.3576)"><path
             d="m 0,0 24.203,0 0,-111.535 -27.802,0 0,69.668 -30.091,-34.998 -4.252,0 -30.092,34.998 0,-69.668 -27.801,0 0,111.535 24.203,0 35.816,-41.376 L 0,0 Z"
             style="fill:#ffffff;fill-opacity:1;fill-rule:nonzero;stroke:none"
             id="path3368"
             inkscape:connector-curvature="0" /></g><g
           id="g3370"
           transform="translate(145.4289,185.2685)"><path
             d="m 0,0 0,-53.348 -14.615,0 0,40.889 c 0,8.146 -1.092,13.828 -3.274,17.049 -2.183,3.222 -5.99,4.831 -11.421,4.831 -3.034,0 -5.816,-0.69 -8.343,-2.076 C -40.182,5.961 -43.072,3.512 -46.318,0 l 0,-53.348 -14.535,0 0,73.471 14.535,0 0,-9.663 c 7.399,7.401 14.641,11.1 21.72,11.1 9.318,0 16.532,-4.418 21.643,-13.257 7.773,8.945 15.892,13.417 24.358,13.417 7.134,0 13.003,-2.607 17.61,-7.826 4.604,-5.217 6.906,-13.175 6.906,-23.877 l 0,-43.365 -14.533,0 0,43.525 c 0,6.121 -1.252,10.807 -3.754,14.053 C 25.128,7.479 21.534,9.102 16.851,9.102 10.833,9.102 5.217,6.067 0,0"
             style="fill:#ffffff;fill-opacity:1;fill-rule:nonzero;stroke:none"
             id="path3372"
             inkscape:connector-curvature="0" /></g><g
           id="g3374"
           transform="translate(225.2046,186.2268)"><path
             d="m 0,0 0,-39.772 c 4.951,-1.489 10.034,-2.236 15.259,-2.236 6.435,0 11.697,2.288 15.765,6.868 4.078,4.579 6.117,10.462 6.117,17.65 0,7.294 -1.908,13.229 -5.713,17.809 C 27.623,4.898 22.653,7.186 16.536,7.186 11.106,7.186 5.59,4.789 0,0 M -14.535,57.259 0,57.259 0,13.894 c 6.285,4.58 12.994,6.868 20.125,6.868 9.321,0 16.931,-3.514 22.841,-10.542 5.91,-7.028 8.87,-16.05 8.87,-27.071 0,-11.82 -3.533,-21.229 -10.589,-28.234 -7.057,-6.999 -16.49,-10.499 -28.31,-10.499 -4.735,0 -9.733,0.507 -14.976,1.517 -5.243,1.01 -9.405,2.288 -12.496,3.833 l 0,107.493 z"
             style="fill:#ffffff;fill-opacity:1;fill-rule:nonzero;stroke:none"
             id="path3376"
             inkscape:connector-curvature="0" /></g><g
           id="g3378"
           transform="translate(304.3529,176.0842)"><path
             d="m 0,0 36.972,0 c -0.376,5.802 -2.105,10.274 -5.187,13.415 -3.091,3.142 -7.244,4.712 -12.458,4.712 -5.224,0 -9.499,-1.57 -12.825,-4.712 C 3.176,10.274 1.005,5.802 0,0 m 51.347,-8.705 -51.666,0 c 0.366,-7.028 2.724,-12.618 7.065,-16.771 4.341,-4.153 9.941,-6.229 16.809,-6.229 9.583,0 18.425,2.983 26.514,8.944 l 0,-14.215 c -4.472,-2.983 -8.907,-5.111 -13.295,-6.389 -4.397,-1.278 -9.545,-1.917 -15.456,-1.917 -8.089,0 -14.638,1.677 -19.645,5.031 -5.009,3.355 -9.011,7.864 -12.018,13.535 -3.006,5.67 -4.509,12.233 -4.509,19.688 0,11.181 3.166,20.271 9.498,27.271 6.333,7.002 14.564,10.502 24.683,10.502 9.743,0 17.513,-3.406 23.319,-10.223 5.798,-6.814 8.701,-15.944 8.701,-27.39 l 0,-1.837 z"
             style="fill:#ffffff;fill-opacity:1;fill-rule:nonzero;stroke:none"
             id="path3380"
             inkscape:connector-curvature="0" /></g><g
           id="g3382"
           transform="translate(420.4635,144.3789)"><path
             d="m 0,0 0,46.557 c -4.529,2.291 -9.104,3.435 -13.736,3.435 -7.244,0 -13.004,-2.368 -17.288,-7.106 -4.284,-4.74 -6.427,-11.129 -6.427,-19.167 0,-7.561 1.861,-13.389 5.591,-17.49 2.236,-2.447 4.603,-4.101 7.103,-4.951 C -22.258,0.427 -17.758,0 -11.256,0 L 0,0 Z m 0,99.107 14.62,0 0,-111.566 -31.072,0 c -10.861,0 -19.524,3.434 -25.997,10.302 -6.464,6.869 -9.696,16.079 -9.696,27.633 0,10.808 3.392,19.698 10.175,26.672 6.793,6.976 15.456,10.462 25.998,10.462 4.895,0 10.222,-1.038 15.972,-3.115 l 0,39.612 z"
             style="fill:#ffffff;fill-opacity:1;fill-rule:nonzero;stroke:none"
             id="path3384"
             inkscape:connector-curvature="0" /></g></g></g></g></svg>